<svg viewBox="-125 -125 250 250" xmlns="http://www.w3.org/2000/svg">
  <g transform="scale(1,-1)" fill="none" stroke="black" stroke-linecap="round" stroke-linejoin="round">
    <circle cx="0" cy="0" r="100" stroke-width="3.0"/>
    <circle cx="0" cy="0" r="75" stroke-width="3.0"/>
    <circle cx="0" cy="0" r="50" stroke-width="2.5"/>
    <ellipse cx="0" cy="6" rx="50" ry="56" stroke-width="2.5"/>
    <circle cx="0" cy="0" r="30" stroke-width="2.5"/>

    <circle cx="0" cy="0" r="12" fill="black" stroke="black" stroke-width="2"/>

    <line x1="0" y1="0" x2="0" y2="75" stroke-width="2.5"/>
    <line x1="0" y1="0" x2="93" y2="0" stroke-width="2.5"/>
    <line x1="0" y1="0" x2="-93" y2="0" stroke-width="2.5"/>
    <line x1="0" y1="0" x2="0" y2="-93" stroke-width="2.5"/>

    <line x1="0" y1="0" x2="82.02" y2="82.02" stroke-width="2.5"/>
    <line x1="0" y1="0" x2="-82.02" y2="82.02" stroke-width="2.5"/>
    <line x1="0" y1="0" x2="-82.02" y2="-82.02" stroke-width="2.5"/>
    <line x1="0" y1="0" x2="82.02" y2="-82.02" stroke-width="3.5"/>

    <circle cx="0" cy="50" r="4" stroke-width="2.0"/>

    <polygon points="107,0 100,5 93,0 100,-5" fill="white" stroke="none"/>
    <polygon points="-107,0 -100,5 -93,0 -100,-5" fill="white" stroke="none"/>
    <polygon points="0,-107 5,-100 0,-93 -5,-100" fill="white" stroke="none"/>

    <polygon points="0,116 5,109 0,102 -5,109" stroke-width="2.5"/>
    <polygon points="107,0 100,5 93,0 100,-5" stroke-width="2.5"/>
    <polygon points="-107,0 -100,5 -93,0 -100,-5" stroke-width="2.5"/>
    <polygon points="0,-107 5,-100 0,-93 -5,-100" stroke-width="2.5"/>
  </g>
</svg>